# xmcd
#
# Track frame offsets:
#	150
#	16297
#	30272
#	47740
#	60655
#	75017
#	94195
#	110132
#	126620
#	141357
#	156652
#
# Disc length: 2301 seconds
#
# Revision: 0
# Processed by: cddbd v1.4PL0 Copyright (c) Steve Scherf et al.
# Submitted via: audiograbber 1.81.03
#
DISCID=9108fb0b
DTITLE=Monty and The Pythons - Real Thing
DYEAR=2001
DGENRE=Country
TTITLE0=(I Want The) Real Thing
TTITLE1=Hard Driving Country Kinda Guy
TTITLE2=Has It Been That Bad For You?
TTITLE3=I Can't Get Over You (To Save My Life)
TTITLE4=Love You Right Out Of This
TTITLE5=Boys Of '44
TTITLE6=Texas State Of Mind
TTITLE7=What I Do The Best
TTITLE8=If Heaven Ever Finds Out You're Gone
TTITLE9=Once You Sell Yourself Short
TTITLE10=Leave My Mama Out Of This
EXTD=
EXTT0=
EXTT1=
EXTT2=
EXTT3=
EXTT4=
EXTT5=
EXTT6=
EXTT7=
EXTT8=
EXTT9=
EXTT10=
PLAYORDER=
